<svg width="317" height="317" viewBox="0 0 317 317" fill="none" xmlns="http://www.w3.org/2000/svg">
<path d="M149.076 299.59L148.98 297.318L148.295 299.286L143.717 310.783L141.829 310.589L139.773 298.408L139.519 296.308L138.922 298.556L135.091 309.894L132.841 309.663L138.705 293.114L140.745 293.324L142.968 306.053L143.102 307.374L143.504 306.108L148.404 294.113L150.444 294.324L152.798 311.719L150.56 311.488L149.076 299.59Z" fill="white"/>
<path d="M119.748 288.869C119.802 289.143 119.782 289.599 119.687 290.238C120.937 289.496 122.236 289.311 123.584 289.682C124.789 290.014 125.686 290.625 126.275 291.517C126.855 292.414 127.001 293.386 126.712 294.433C126.362 295.706 125.608 296.56 124.451 296.995C123.284 297.435 121.824 297.414 120.069 296.931L118.035 296.371L117.77 297.331C117.569 298.062 117.628 298.702 117.947 299.251C118.263 299.808 118.847 300.204 119.698 300.439C120.444 300.644 121.121 300.628 121.729 300.39C122.338 300.152 122.715 299.766 122.863 299.231L124.964 299.81C124.796 300.42 124.42 300.949 123.835 301.395C123.24 301.847 122.528 302.138 121.699 302.266C120.862 302.392 119.999 302.333 119.11 302.088C117.702 301.7 116.696 301.042 116.092 300.114C115.487 299.194 115.339 298.112 115.649 296.868L117.199 291.242C117.508 290.12 117.61 289.188 117.507 288.446L117.556 288.265L119.748 288.869ZM122.778 291.417C122.123 291.236 121.455 291.235 120.774 291.412C120.093 291.589 119.546 291.913 119.133 292.382L118.442 294.89L120.081 295.342C122.642 296.047 124.128 295.65 124.541 294.151C124.722 293.496 124.644 292.923 124.309 292.434C123.974 291.945 123.463 291.606 122.778 291.417Z" fill="white"/>
<path d="M100.801 298.869L101.952 296.022L99.7575 295.135L100.386 293.581L102.58 294.468L105.527 287.178C105.718 286.708 105.764 286.313 105.665 285.995C105.563 285.684 105.276 285.434 104.806 285.243C104.574 285.15 104.238 285.064 103.797 284.987L104.456 283.358C105.043 283.426 105.587 283.562 106.086 283.764C106.984 284.127 107.552 284.672 107.789 285.4C108.025 286.128 107.941 286.992 107.537 287.991L104.59 295.281L106.73 296.146L106.102 297.7L103.962 296.835L102.811 299.681L100.801 298.869Z" fill="white"/>
<path d="M92.5417 279.241C91.8615 278.873 91.1556 278.757 90.424 278.894C89.6925 279.031 89.1319 279.394 88.7422 279.983L86.9387 279.007C87.3189 278.386 87.8678 277.897 88.5856 277.54C89.3033 277.182 90.0952 277.015 90.9614 277.04C91.8206 277.061 92.6281 277.276 93.3839 277.685C94.9024 278.507 95.8383 279.666 96.1917 281.163C96.5346 282.663 96.23 284.293 95.278 286.052L95.1051 286.371C94.5176 287.457 93.7958 288.314 92.94 288.944C92.0841 289.573 91.1587 289.921 90.1638 289.986C89.162 290.048 88.1527 289.804 87.1358 289.254C85.8853 288.577 85.0505 287.641 84.6313 286.446C84.2053 285.247 84.2883 284.035 84.8804 282.81L86.684 283.786C86.3485 284.537 86.3035 285.277 86.5491 286.005C86.784 286.736 87.2622 287.297 87.9836 287.687C88.9524 288.212 89.8944 288.268 90.8096 287.858C91.7142 287.45 92.5236 286.587 93.2375 285.267L93.4328 284.907C94.1281 283.622 94.3991 282.489 94.2456 281.509C94.0922 280.529 93.5242 279.773 92.5417 279.241Z" fill="white"/>
<path d="M74.1251 279.192C72.6538 279.58 71.2961 279.32 70.0522 278.414C67.8863 276.836 67.6841 274.819 69.4455 272.361L74.3793 265.589L76.1315 266.865L71.1908 273.647C70.6589 274.391 70.4315 275.061 70.5085 275.658C70.5792 276.251 70.9651 276.803 71.666 277.314C72.2343 277.728 72.8435 277.94 73.4937 277.949C74.1439 277.959 74.7684 277.805 75.3672 277.487L80.6874 270.185L82.4397 271.461L71.8406 286.01L70.0883 284.733L74.1251 279.192Z" fill="white"/>
<path d="M46.3572 260.963L48.6115 258.879L47.0044 257.141L48.2348 256.003L49.8419 257.741L55.6153 252.402C55.9881 252.058 56.1976 251.72 56.2436 251.39C56.284 251.066 56.1318 250.717 55.787 250.344C55.6173 250.161 55.3495 249.94 54.9836 249.683L56.2743 248.489C56.7762 248.802 57.2101 249.156 57.5761 249.552C58.2338 250.263 58.5146 250.998 58.4186 251.758C58.3225 252.517 57.8787 253.262 57.0871 253.994L51.3137 259.333L52.8811 261.028L51.6507 262.165L50.0834 260.47L47.8291 262.555L46.3572 260.963Z" fill="white"/>
<path d="M41.2138 247.714C39.6944 247.633 38.4809 246.972 37.5732 245.729C35.9927 243.565 36.4164 241.582 38.8442 239.78L45.6107 234.838L46.8893 236.589L40.1134 241.537C39.3798 242.083 38.9585 242.652 38.8494 243.244C38.7357 243.83 38.9345 244.473 39.446 245.174C39.8607 245.742 40.3761 246.129 40.9923 246.337C41.6084 246.545 42.2501 246.589 42.9173 246.47L50.2137 241.141L51.4924 242.892L36.9562 253.508L35.6776 251.757L41.2138 247.714Z" fill="white"/>
<path d="M38.6343 222.746C39.4541 224.256 39.6268 225.754 39.1523 227.238C38.671 228.726 37.5995 229.921 35.9378 230.823L35.5876 231.013C34.4821 231.613 33.3831 231.938 32.2907 231.989C31.1876 232.036 30.1873 231.815 29.2899 231.324C28.3818 230.83 27.6874 230.14 27.2067 229.255C26.4204 227.806 26.2864 226.421 26.8048 225.099C27.3233 223.778 28.4717 222.635 30.25 221.67L31.0431 221.239L35.1406 228.789C36.2243 228.165 36.9402 227.363 37.2883 226.383C37.6258 225.4 37.5374 224.435 37.0231 223.487C36.6579 222.814 36.2113 222.319 35.6832 222.001C35.1551 221.683 34.5695 221.472 33.9263 221.368L34.201 219.712C36.1429 219.867 37.6206 220.878 38.6343 222.746ZM28.7722 228.405C29.1896 229.174 29.8215 229.667 30.6677 229.883C31.5071 230.103 32.465 230.001 33.5415 229.577L30.5117 223.994L30.3675 224.072C29.4292 224.653 28.8224 225.32 28.5471 226.074C28.2649 226.831 28.34 227.609 28.7722 228.405Z" fill="white"/>
<path d="M23.7962 195.465C23.2344 195.632 22.8631 195.974 22.6825 196.492C22.4921 197.004 22.4409 197.822 22.529 198.945C22.6148 200.06 22.5925 200.975 22.462 201.69C22.3293 202.398 22.0901 202.965 21.7444 203.394C21.3964 203.814 20.9228 204.114 20.3235 204.291C19.3272 204.586 18.3603 204.416 17.4226 203.781C16.4828 203.139 15.8188 202.162 15.4305 200.851C15.0223 199.473 15.0476 198.252 15.5064 197.187C15.9629 196.115 16.7455 195.414 17.8541 195.086L18.4731 197.176C17.9037 197.345 17.4852 197.733 17.2174 198.342C16.9474 198.944 16.9211 199.612 17.1385 200.346C17.3625 201.102 17.7026 201.645 18.1586 201.975C18.6147 202.304 19.1086 202.39 19.6405 202.232C20.1424 202.084 20.4619 201.773 20.599 201.301C20.7361 200.828 20.7677 200.041 20.6938 198.938C20.6176 197.828 20.6452 196.903 20.7766 196.164C20.9079 195.424 21.1565 194.833 21.5225 194.391C21.8788 193.943 22.3828 193.623 23.0345 193.43C24.1207 193.108 25.1221 193.284 26.0386 193.958C26.9476 194.634 27.6074 195.665 28.0178 197.05C28.3062 198.024 28.389 198.937 28.2663 199.788C28.1435 200.639 27.8382 201.369 27.3504 201.978C26.8529 202.582 26.2446 202.99 25.5255 203.203L24.9099 201.124C25.5954 200.88 26.0677 200.439 26.3266 199.8C26.5758 199.156 26.574 198.407 26.3211 197.553C26.0881 196.766 25.7445 196.184 25.2901 195.805C24.826 195.421 24.3281 195.308 23.7962 195.465Z" fill="white"/>
<path d="M8.62917 184.299L11.652 183.761L11.2375 181.431L12.8874 181.137L13.3019 183.468L21.0437 182.091C21.5436 182.002 21.9021 181.831 22.119 181.578C22.3282 181.327 22.3883 180.951 22.2994 180.451C22.2556 180.205 22.1492 179.875 21.9803 179.46L23.711 179.153C23.9647 179.687 24.1387 180.219 24.2331 180.75C24.4028 181.704 24.2423 182.474 23.7516 183.061C23.2609 183.649 22.4848 184.037 21.4234 184.225L13.6816 185.602L14.0859 187.875L12.436 188.169L12.0317 185.896L9.00884 186.434L8.62917 184.299Z" fill="white"/>
<path d="M22.2338 164.045C21.9919 164.185 21.5535 164.314 20.9188 164.43C22.0247 165.373 22.62 166.542 22.7046 167.938C22.7802 169.186 22.4915 170.233 21.8383 171.078C21.1769 171.917 20.3042 172.369 19.2203 172.435C17.9024 172.514 16.8506 172.077 16.0648 171.123C15.2708 170.162 14.8187 168.772 14.7086 166.955L14.581 164.85L13.5867 164.91C12.8303 164.956 12.2435 165.218 11.8265 165.698C11.4016 166.177 11.2158 166.858 11.2693 167.739C11.3161 168.511 11.5502 169.147 11.9718 169.645C12.3934 170.144 12.881 170.377 13.4347 170.343L13.5666 172.519C12.9349 172.557 12.3132 172.372 11.7014 171.963C11.0813 171.546 10.5766 170.967 10.1871 170.223C9.79719 169.472 9.57434 168.636 9.51857 167.716C9.43017 166.258 9.72744 165.093 10.4104 164.222C11.0855 163.352 12.0616 162.862 13.3386 162.753L19.1638 162.4C20.3257 162.33 21.2408 162.125 21.9091 161.788L22.0963 161.776L22.2338 164.045ZM20.8022 167.736C20.7611 167.058 20.5466 166.425 20.1588 165.838C19.771 165.251 19.2881 164.838 18.7101 164.599L16.1133 164.757L16.2161 166.453C16.3769 169.104 17.2331 170.383 18.785 170.289C19.4634 170.248 19.98 169.99 20.3347 169.514C20.6894 169.039 20.8452 168.446 20.8022 167.736Z" fill="white"/>
<path d="M11.8425 146.413C11.7687 146.737 11.7206 147.091 11.6982 147.473C11.615 148.892 12.163 149.891 13.3421 150.469L22.3267 150.995L22.1998 153.16L9.54184 152.418L9.66529 150.312L11.1297 150.362C10.0404 149.586 9.53397 148.547 9.61033 147.245C9.63502 146.824 9.70836 146.507 9.83035 146.295L11.8425 146.413Z" fill="white"/>
<path d="M21.3152 131.629C20.7382 131.528 20.2533 131.669 19.8607 132.052C19.4618 132.426 19.0515 133.135 18.6299 134.18C18.2097 135.216 17.7818 136.025 17.3464 136.607C16.9123 137.181 16.445 137.583 15.9446 137.812C15.4456 138.034 14.8883 138.091 14.2727 137.982C13.2494 137.802 12.4595 137.219 11.9031 136.233C11.3481 135.239 11.189 134.069 11.4258 132.722C11.6747 131.307 12.2418 130.224 13.127 129.476C14.0135 128.719 15.0262 128.441 16.165 128.642L15.7875 130.788C15.2027 130.686 14.6548 130.847 14.1437 131.273C13.6339 131.691 13.3127 132.277 13.1801 133.031C13.0435 133.808 13.1058 134.446 13.3673 134.944C13.6287 135.442 14.0326 135.739 14.5789 135.835C15.0944 135.926 15.5189 135.79 15.8522 135.428C16.1855 135.066 16.5648 134.376 16.99 133.356C17.4166 132.328 17.8535 131.513 18.3007 130.909C18.7479 130.305 19.2339 129.887 19.7588 129.654C20.2773 129.412 20.8712 129.35 21.5406 129.468C22.6563 129.664 23.4743 130.268 23.9944 131.28C24.5069 132.29 24.638 133.507 24.3877 134.93C24.2118 135.93 23.8793 136.784 23.39 137.491C22.9008 138.199 22.3021 138.716 21.5941 139.044C20.8797 139.362 20.1531 139.457 19.4145 139.327L19.7899 137.192C20.5123 137.279 21.1317 137.094 21.6483 136.638C22.1585 136.172 22.4907 135.501 22.6449 134.624C22.787 133.816 22.739 133.141 22.5011 132.599C22.2568 132.049 21.8615 131.726 21.3152 131.629Z" fill="white"/>
<path d="M30.2713 123.109L29.125 124.064C28.3395 123.079 27.4285 122.424 26.3919 122.099L24.5085 121.567L25.0847 119.526L26.72 119.988C27.4794 120.202 28.1857 120.604 28.839 121.195C29.4944 121.777 29.9718 122.415 30.2713 123.109Z" fill="white"/>
<path d="M37.3293 95.7226C37.0498 95.7239 36.6056 95.6176 35.9967 95.4037C36.4885 96.7711 36.4245 98.0816 35.8047 99.3351C35.2507 100.456 34.4802 101.221 33.4933 101.63C32.5028 102.03 31.5208 101.989 30.5474 101.507C29.3638 100.922 28.668 100.02 28.4599 98.802C28.2483 97.5731 28.5458 96.1427 29.3526 94.511L30.2875 92.6201L29.3946 92.1786C28.7153 91.8427 28.0756 91.7792 27.4756 91.988C26.8686 92.1934 26.3694 92.6918 25.9782 93.4831C25.6354 94.1765 25.523 94.8443 25.6412 95.4866C25.7594 96.129 26.0671 96.5731 26.5643 96.8189L25.5983 98.7728C25.031 98.4924 24.5834 98.0227 24.2555 97.3638C23.9241 96.6945 23.774 95.9405 23.8052 95.1018C23.8399 94.2561 24.0615 93.4201 24.4701 92.5937C25.1176 91.2841 25.954 90.4208 26.9793 90.004C27.9977 89.5837 29.088 89.6434 30.2504 90.1833L35.4818 92.7698C36.5253 93.2857 37.421 93.563 38.1689 93.6016L38.3369 93.6847L37.3293 95.7226ZM34.2536 98.2153C34.5549 97.606 34.683 96.9503 34.6379 96.2483C34.5928 95.5462 34.3788 94.9479 33.9957 94.4535L31.6636 93.3005L30.9105 94.8237C29.7333 97.2048 29.8414 98.7399 31.2351 99.4289C31.8444 99.7302 32.421 99.7625 32.965 99.526C33.509 99.2895 33.9385 98.8526 34.2536 98.2153Z" fill="white"/>
<path d="M33.2809 77.4343L34.639 78.2712C34.1747 76.7852 34.3813 75.3958 35.2588 74.103C36.7637 71.8858 38.7736 71.6165 41.2883 73.2951L48.2211 78.0007L47.0035 79.7945L40.0611 75.0823C39.3004 74.5754 38.6228 74.3704 38.0283 74.4673C37.4381 74.5577 36.8996 74.9617 36.4125 75.6792C36.0177 76.261 35.8262 76.8769 35.8381 77.5271C35.85 78.1773 36.0247 78.7963 36.3622 79.3841L43.8379 84.4583L42.6204 86.2521L32.1292 79.1311L33.2809 77.4343Z" fill="white"/>
<path d="M48.4119 67.1939C46.9668 65.8916 46.1147 64.5031 45.8555 63.0286C45.5905 61.5488 45.9575 60.2546 46.9565 59.1462C47.9502 58.0435 49.1145 57.51 50.4495 57.5457L45.5397 53.1211L46.9911 51.5106L60.3625 63.5607L59.0288 65.0406L57.9484 64.2089C58.1571 65.5644 57.7437 66.8167 56.7081 67.9658C55.7249 69.0569 54.4752 69.545 52.9591 69.4302C51.4482 69.3096 49.9731 68.6008 48.5338 67.3037L48.4119 67.1939ZM50.0461 65.7481C51.1139 66.7105 52.1484 67.2431 53.1494 67.3459C54.1505 67.4488 55.0014 67.1114 55.7023 66.3337C56.6228 65.3123 56.8364 64.1533 56.343 62.8569L52.0165 58.9579C50.6945 58.6393 49.5836 58.9792 48.6841 59.9774C47.9728 60.7667 47.7231 61.6564 47.935 62.6467C48.1468 63.6369 48.8505 64.6707 50.0461 65.7481Z" fill="white"/>
<path d="M78.7664 43.618C78.4239 43.1426 77.9784 42.9052 77.4298 42.9056C76.883 42.8952 76.0943 43.1169 75.0635 43.5707C74.0391 44.0199 73.168 44.301 72.4501 44.4138C71.7385 44.5221 71.1235 44.4838 70.6051 44.2989C70.093 44.1094 69.6542 43.7611 69.2889 43.254C68.6814 42.411 68.5226 41.4421 68.8123 40.3475C69.1084 39.2482 69.811 38.299 70.9202 37.4997C72.0865 36.6594 73.2479 36.28 74.4044 36.3614C75.5672 36.4384 76.4865 36.9459 77.1625 37.884L75.394 39.1582C75.0469 38.6765 74.5418 38.4098 73.8786 38.358C73.2217 38.3017 72.5827 38.4973 71.9616 38.9449C71.3214 39.4062 70.9211 39.9064 70.7608 40.4457C70.6004 40.9849 70.6824 41.4795 71.0067 41.9295C71.3127 42.3542 71.7113 42.5533 72.2025 42.5267C72.6937 42.5002 73.4475 42.27 74.4638 41.8362C75.4864 41.3979 76.3685 41.1186 77.11 40.9984C77.8515 40.8782 78.4914 40.9178 79.0299 41.1171C79.5702 41.3056 80.039 41.6756 80.4363 42.227C81.0985 43.1461 81.263 44.1494 80.9296 45.237C80.5917 46.3183 79.8365 47.2813 78.6638 48.1263C77.8398 48.72 77.0059 49.0994 76.1619 49.2646C75.318 49.4297 74.5281 49.3826 73.7923 49.1232C73.0583 48.8528 72.4721 48.4134 72.0336 47.8049L73.7925 46.5375C74.249 47.1042 74.8215 47.4043 75.51 47.4377C76.2003 47.4603 76.9068 47.2113 77.6294 46.6906C78.2949 46.2111 78.7314 45.6943 78.9389 45.1404C79.1482 44.5755 79.0907 44.0681 78.7664 43.618Z" fill="white"/>
<path d="M94.132 38.4569C92.6191 39.2726 91.1212 39.4411 89.6384 38.9624C88.1518 38.4769 86.9599 37.4021 86.0627 35.7379L85.8736 35.3872C85.2767 34.28 84.9544 33.1801 84.9068 32.0875C84.8623 30.9843 85.0867 29.9847 85.5799 29.0886C86.0763 28.1819 86.768 27.4895 87.6551 27.0112C89.1061 26.229 90.4916 26.0989 91.8115 26.621C93.1314 27.1431 94.2715 28.2947 95.2317 30.0758L95.6599 30.87L88.0989 34.9463C88.7196 36.0318 89.5195 36.7499 90.4986 37.1008C91.4808 37.441 92.4464 37.3554 93.3954 36.8437C94.0693 36.4804 94.566 36.0351 94.8853 35.508C95.2046 34.9808 95.4173 34.3957 95.5233 33.7528L97.1783 34.0321C97.0179 35.9736 96.0025 37.4485 94.132 38.4569ZM88.5004 28.5791C87.7302 28.9944 87.2358 29.6248 87.0172 30.4705C86.7949 31.3092 86.8943 32.2675 87.3155 33.3451L92.9063 30.3309L92.8285 30.1865C92.2507 29.2465 91.5853 28.6379 90.8322 28.3605C90.0754 28.0762 89.2981 28.1491 88.5004 28.5791Z" fill="white"/>
<path d="M110.196 31.1568C108.591 31.7696 107.084 31.7426 105.675 31.0759C104.264 30.4018 103.221 29.1816 102.547 27.4152L102.405 27.043C101.957 25.8678 101.78 24.7354 101.874 23.6458C101.973 22.5462 102.325 21.584 102.93 20.7594C103.54 19.9247 104.316 19.3277 105.257 18.9684C106.797 18.3807 108.188 18.4313 109.429 19.12C110.67 19.8087 111.651 21.0983 112.373 22.9888L112.694 23.8318L104.669 26.8942C105.144 28.0509 105.844 28.8666 106.769 29.3413C107.699 29.806 108.668 29.8461 109.675 29.4618C110.39 29.1888 110.94 28.8117 111.325 28.3303C111.71 27.849 111.997 27.2964 112.185 26.6726L113.79 27.164C113.38 29.0683 112.182 30.3992 110.196 31.1568ZM105.892 20.6326C105.075 20.9446 104.503 21.5056 104.176 22.3158C103.847 23.1188 103.822 24.0818 104.1 25.2049L110.034 22.9405L109.975 22.7872C109.524 21.7803 108.943 21.0906 108.233 20.7179C107.519 20.338 106.739 20.3095 105.892 20.6326Z" fill="white"/>
<path d="M136.032 20.7467L137.445 10.8953L139.736 10.5284L137.017 25.7871C136.571 27.9947 135.5 29.2344 133.803 29.5062L133.392 29.5364L132.57 29.5138L132.292 27.7781L132.878 27.7317C133.603 27.6156 134.143 27.3788 134.497 27.0215C134.859 26.6628 135.109 26.073 135.246 25.2518L135.517 23.903L129.067 12.237L131.405 11.8627L136.032 20.7467Z" fill="white"/>
<path d="M148.223 15.9099C148.187 14.6682 148.397 13.5445 148.852 12.5387C149.316 11.5328 149.973 10.7478 150.824 10.184C151.683 9.61986 152.671 9.32168 153.788 9.28943C155.514 9.23958 156.925 9.79673 158.021 10.9609C159.126 12.1248 159.707 13.6985 159.764 15.6821L159.768 15.8343C159.804 17.0682 159.598 18.184 159.15 19.1817C158.709 20.1714 158.056 20.9523 157.189 21.5245C156.33 22.0964 155.331 22.3988 154.191 22.4317C152.473 22.4813 151.062 21.9242 149.957 20.7603C148.861 19.5961 148.284 18.0301 148.227 16.0622L148.223 15.9099ZM150.409 16.1047C150.45 17.5103 150.806 18.6294 151.479 19.4619C152.159 20.2941 153.046 20.6945 154.14 20.6629C155.241 20.6311 156.103 20.1763 156.726 19.2986C157.35 18.4131 157.639 17.1933 157.594 15.6392C157.554 14.2492 157.189 13.1342 156.501 12.2944C155.82 11.4465 154.932 11.0384 153.839 11.0699C152.769 11.1008 151.919 11.5514 151.287 12.4215C150.656 13.2917 150.363 14.5194 150.409 16.1047Z" fill="white"/>
<path d="M175.572 21.9536C174.626 22.8488 173.341 23.2082 171.718 23.0317C170.374 22.8857 169.391 22.3859 168.769 21.5324C168.155 20.672 167.927 19.4763 168.086 17.9454L168.977 9.74374L171.133 9.97802L170.247 18.1215C170.04 20.0321 170.713 21.0718 172.266 21.2407C173.913 21.4196 175.074 20.9251 175.751 19.7571L176.748 10.5884L178.903 10.8227L177.533 23.4281L175.483 23.2052L175.572 21.9536Z" fill="white"/>
<path d="M194.564 15.9191C194.256 15.7919 193.916 15.6851 193.543 15.5988C192.158 15.2783 191.082 15.6507 190.314 16.716L188.285 25.4843L186.173 24.9956L189.031 12.6423L191.086 13.1178L190.79 14.5528C191.738 13.6094 192.848 13.2848 194.119 13.5789C194.53 13.674 194.83 13.7995 195.018 13.9554L194.564 15.9191Z" fill="white"/>
<path d="M207.546 27.741C207.743 27.1892 207.685 26.6876 207.374 26.2362C207.072 25.7801 206.442 25.2565 205.483 24.6654C204.532 24.077 203.806 23.5192 203.305 22.9922C202.812 22.4678 202.495 21.9397 202.353 21.4079C202.218 20.8787 202.256 20.3198 202.466 19.7312C202.816 18.7526 203.523 18.072 204.589 17.6892C205.662 17.3091 206.842 17.3488 208.13 17.8085C209.484 18.2918 210.455 19.0326 211.044 20.031C211.641 21.032 211.745 22.077 211.356 23.166L209.303 22.4332C209.503 21.874 209.436 21.3067 209.102 20.7313C208.776 20.1585 208.252 19.7434 207.531 19.486C206.788 19.2208 206.149 19.1752 205.614 19.3492C205.079 19.5232 204.718 19.8714 204.532 20.3938C204.356 20.8868 204.418 21.328 204.719 21.7173C205.019 22.1067 205.637 22.5967 206.571 23.1872C207.512 23.7804 208.242 24.3481 208.762 24.8904C209.282 25.4326 209.613 25.982 209.754 26.5385C209.906 27.0903 209.867 27.6863 209.639 28.3264C209.258 29.3933 208.525 30.0981 207.44 30.4409C206.358 30.7764 205.137 30.7011 203.776 30.2152C202.819 29.8738 202.033 29.4025 201.418 28.8014C200.803 28.2003 200.394 27.5232 200.19 26.7702C199.996 26.0124 200.025 25.2803 200.277 24.574L202.319 25.3028C202.111 26.0002 202.189 26.6419 202.552 27.2278C202.926 27.809 203.532 28.2493 204.37 28.5487C205.143 28.8245 205.816 28.8906 206.39 28.747C206.974 28.5987 207.359 28.2634 207.546 27.741Z" fill="white"/>
<path d="M220.516 37.4627C218.986 36.68 217.997 35.5424 217.549 34.0498C217.105 32.5503 217.314 30.959 218.175 29.2758L218.356 28.921C218.929 27.8012 219.651 26.9116 220.524 26.2522C221.407 25.5895 222.357 25.2069 223.375 25.1044C224.403 24.9985 225.366 25.175 226.263 25.6339C227.731 26.3846 228.624 27.4515 228.944 28.8345C229.263 30.2176 228.962 31.8098 228.04 33.6113L227.63 34.4146L219.982 30.503C219.441 31.6301 219.303 32.6962 219.57 33.7015C219.847 34.7033 220.466 35.4497 221.426 35.9406C222.108 36.2893 222.756 36.4455 223.371 36.4092C223.987 36.3729 224.589 36.2159 225.178 35.9383L225.888 37.4594C224.198 38.4293 222.408 38.4304 220.516 37.4627ZM225.452 27.2198C224.673 26.8213 223.874 26.7721 223.053 27.072C222.236 27.365 221.504 27.9907 220.856 28.9492L226.511 31.8415L226.585 31.6955C227.031 30.6863 227.155 29.793 226.956 29.0155C226.76 28.231 226.259 27.6325 225.452 27.2198Z" fill="white"/>
<path d="M233.422 44.7546L231.606 43.5711L241.432 28.4898L243.248 29.6733L233.422 44.7546Z" fill="white"/>
<path d="M241.155 50.2611L247.968 41.6203L246.395 40.3795L247.432 39.0636L249.006 40.3044L249.811 39.2829C250.653 38.2155 251.589 37.6153 252.619 37.4824C253.649 37.3494 254.686 37.6941 255.729 38.5165C256.121 38.8261 256.47 39.1854 256.774 39.5944L255.593 40.9022C255.349 40.6196 255.064 40.3501 254.739 40.0938C254.186 39.6584 253.632 39.4848 253.075 39.5729C252.523 39.6549 252.01 39.9965 251.536 40.5977L250.708 41.6467L252.834 43.3229L251.797 44.6388L249.671 42.9626L242.857 51.6035L241.155 50.2611Z" fill="white"/>
<path d="M270.595 63.589C270.419 63.3067 270.204 63.022 269.951 62.7349C269.011 61.6684 267.918 61.3451 266.674 61.7651L259.924 67.7174L258.49 66.0913L268 57.7054L269.395 59.2875L268.32 60.2827C269.64 60.0667 270.731 60.448 271.594 61.4266C271.873 61.7431 272.044 62.0195 272.107 62.2559L270.595 63.589Z" fill="white"/>
<path d="M272.789 82.3276C271.494 82.1961 270.382 81.4581 269.456 80.1138C268.688 79.001 268.425 77.9302 268.665 76.9015C268.915 75.8748 269.672 74.9214 270.934 74.0415L277.727 69.3591L278.957 71.144L272.213 75.7932C270.631 76.8839 270.283 78.0726 271.17 79.359C272.11 80.7227 273.243 81.2793 274.57 81.029L282.163 75.7945L283.394 77.5795L272.954 84.776L271.784 83.0779L272.789 82.3276Z" fill="white"/>
<path d="M289.705 88.3995L288.313 89.1789C289.837 89.4962 290.95 90.3526 291.653 91.7482C292.858 94.1417 292.115 96.0287 289.425 97.4092L281.941 101.177L280.966 99.2405L288.461 95.4675C289.274 95.0495 289.783 94.5572 289.987 93.9906C290.195 93.431 290.104 92.764 289.714 91.9894C289.398 91.3614 288.953 90.8944 288.379 90.5885C287.806 90.2826 287.18 90.1341 286.502 90.143L278.432 94.2058L277.457 92.2694L288.782 86.5677L289.705 88.3995Z" fill="white"/>
<path d="M298.023 107.025L296.538 107.607C298.005 108.13 298.99 109.13 299.496 110.609C300.362 113.144 299.368 114.912 296.515 115.912L288.586 118.621L287.885 116.57L295.825 113.857C296.688 113.554 297.259 113.136 297.539 112.602C297.822 112.076 297.823 111.403 297.542 110.583C297.315 109.917 296.938 109.394 296.411 109.012C295.885 108.631 295.285 108.398 294.613 108.314L286.063 111.236L285.362 109.184L297.36 105.084L298.023 107.025Z" fill="white"/>
<path d="M291.315 129.406L290.84 127.291L303.211 124.512L303.686 126.627L291.315 129.406ZM306.454 123.603C306.797 123.526 307.11 123.564 307.393 123.717C307.677 123.877 307.865 124.163 307.958 124.575C308.05 124.987 308.002 125.326 307.814 125.592C307.625 125.859 307.36 126.03 307.017 126.107C306.674 126.184 306.364 126.142 306.087 125.98C305.811 125.818 305.626 125.531 305.534 125.119C305.441 124.708 305.485 124.37 305.666 124.105C305.849 123.848 306.111 123.68 306.454 123.603Z" fill="white"/>
<path d="M305.771 138.249L304.195 138.499C305.515 139.324 306.263 140.513 306.438 142.066C306.74 144.728 305.39 146.241 302.388 146.605L294.062 147.547L293.818 145.393L302.156 144.449C303.063 144.339 303.711 144.053 304.099 143.592C304.488 143.139 304.634 142.482 304.536 141.621C304.457 140.922 304.202 140.33 303.769 139.844C303.337 139.358 302.801 139.002 302.162 138.776L293.184 139.792L292.941 137.638L305.54 136.212L305.771 138.249Z" fill="white"/>
<path d="M300.953 155.885C302.929 155.934 304.488 156.429 305.629 157.371C306.779 158.314 307.335 159.539 307.298 161.046C307.26 162.592 306.684 163.786 305.569 164.626L306.972 164.766L306.924 166.745L294.553 166.443C292.913 166.403 291.632 165.883 290.711 164.884C289.789 163.892 289.349 162.576 289.389 160.936C289.411 160.022 289.628 159.133 290.04 158.268C290.452 157.402 291.004 156.748 291.694 156.304L292.967 157.46C291.796 158.361 291.194 159.484 291.162 160.827C291.136 161.881 291.413 162.709 291.992 163.309C292.571 163.917 293.399 164.234 294.477 164.261L295.567 164.287C294.588 163.396 294.117 162.201 294.154 160.701C294.19 159.217 294.817 158.029 296.035 157.137C297.252 156.252 298.891 155.835 300.953 155.885ZM300.654 158.058C299.225 158.023 298.093 158.289 297.259 158.854C296.432 159.42 296.006 160.231 295.98 161.285C295.947 162.652 296.543 163.67 297.769 164.341L303.556 164.483C304.783 163.849 305.413 162.868 305.445 161.54C305.471 160.485 305.081 159.651 304.276 159.038C303.47 158.424 302.263 158.098 300.654 158.058Z" fill="white"/>
<path d="M291.891 197.166L300.635 202.004L300.079 204.1L288.768 197.284L289.218 195.584L299.297 195.067L290.776 189.705L291.227 188.006L304.426 187.697L303.874 189.782L294.059 189.763L302.478 195.049L302.03 196.737L291.891 197.166Z" fill="white"/>
<path d="M284.048 210.369L284.863 208.36L296.613 213.127L295.798 215.136L284.048 210.369ZM299.796 214.228C300.122 214.36 300.357 214.569 300.502 214.856C300.644 215.15 300.636 215.492 300.478 215.883C300.319 216.274 300.086 216.525 299.78 216.637C299.473 216.748 299.157 216.738 298.831 216.606C298.505 216.474 298.275 216.262 298.14 215.972C298.005 215.681 298.017 215.34 298.175 214.949C298.334 214.558 298.563 214.305 298.862 214.191C299.159 214.083 299.47 214.096 299.796 214.228Z" fill="white"/>
<path d="M293.286 227.847L290.552 226.451L289.475 228.56L287.983 227.798L289.059 225.689L282.055 222.114C281.603 221.883 281.214 221.803 280.889 221.874C280.57 221.948 280.295 222.211 280.065 222.664C279.951 222.886 279.836 223.214 279.721 223.646L278.155 222.847C278.275 222.268 278.458 221.738 278.703 221.258C279.144 220.395 279.737 219.878 280.482 219.706C281.228 219.534 282.081 219.693 283.041 220.183L290.045 223.758L291.094 221.702L292.587 222.464L291.537 224.52L294.272 225.916L293.286 227.847Z" fill="white"/>
<path d="M282.627 237.249C283.077 238.703 282.875 240.07 282.022 241.351C280.536 243.581 278.529 243.869 276 242.212L269.025 237.568L270.227 235.764L277.211 240.414C277.976 240.914 278.656 241.113 279.249 241.011C279.838 240.916 280.373 240.507 280.854 239.785C281.244 239.2 281.43 238.582 281.412 237.932C281.394 237.282 281.214 236.665 280.872 236.08L273.351 231.072L274.553 229.268L289.535 239.244L288.333 241.049L282.627 237.249Z" fill="white"/>
<path d="M265.585 265.76L263.407 263.596L261.738 265.275L260.55 264.093L262.218 262.414L256.642 256.871C256.281 256.513 255.935 256.318 255.604 256.286C255.278 256.259 254.936 256.426 254.578 256.786C254.402 256.963 254.193 257.24 253.951 257.617L252.704 256.378C252.995 255.863 253.331 255.414 253.711 255.032C254.394 254.345 255.117 254.033 255.879 254.097C256.642 254.161 257.405 254.573 258.17 255.333L263.747 260.877L265.374 259.239L266.563 260.421L264.935 262.058L267.113 264.223L265.585 265.76Z" fill="white"/>
<path d="M252.564 271.457C252.547 272.979 251.938 274.219 250.734 275.178C248.638 276.848 246.639 276.509 244.737 274.159L239.514 267.607L241.209 266.255L246.439 272.817C247.015 273.527 247.601 273.924 248.198 274.008C248.788 274.097 249.422 273.871 250.1 273.33C250.65 272.892 251.016 272.361 251.198 271.737C251.379 271.112 251.396 270.469 251.249 269.808L245.617 262.742L247.313 261.391L258.532 275.467L256.836 276.818L252.564 271.457Z" fill="white"/>
<path d="M227.726 275.086C229.201 274.204 230.69 273.968 232.193 274.38C233.7 274.798 234.939 275.818 235.91 277.44L236.114 277.782C236.76 278.861 237.132 279.946 237.228 281.035C237.322 282.135 237.143 283.144 236.691 284.061C236.236 284.989 235.576 285.712 234.711 286.23C233.297 287.076 231.918 287.269 230.576 286.806C229.234 286.344 228.044 285.245 227.004 283.509L226.541 282.734L233.911 278.322C233.242 277.266 232.411 276.585 231.417 276.278C230.421 275.982 229.46 276.111 228.535 276.665C227.878 277.058 227.402 277.525 227.106 278.066C226.811 278.607 226.625 279.201 226.548 279.848L224.882 279.644C224.955 277.697 225.903 276.178 227.726 275.086ZM233.796 284.701C234.547 284.252 235.012 283.6 235.193 282.745C235.377 281.897 235.235 280.945 234.766 279.887L229.316 283.149L229.4 283.29C230.02 284.203 230.712 284.781 231.477 285.025C232.245 285.275 233.019 285.167 233.796 284.701Z" fill="white"/>
<path d="M219.858 293.945L219.286 292.659C218.824 294.018 217.86 294.988 216.392 295.569C214.743 296.222 213.371 296.034 212.275 295.006C212.107 295.728 211.78 296.387 211.293 296.983C210.799 297.582 210.124 298.051 209.266 298.39C206.68 299.414 204.824 298.565 203.696 295.844L200.568 287.944L202.584 287.146L205.664 294.926C205.998 295.769 206.439 296.321 206.988 296.582C207.54 296.851 208.27 296.806 209.178 296.446C209.926 296.15 210.458 295.679 210.773 295.033C211.092 294.395 211.141 293.682 210.922 292.895L207.825 285.071L209.852 284.269L212.91 291.994C213.589 293.708 214.767 294.233 216.445 293.569C217.767 293.046 218.449 292.125 218.489 290.806L215.082 282.198L217.097 281.4L221.765 293.19L219.858 293.945Z" fill="white"/>
<path d="M180.84 304.203L184.493 304.745L184.21 306.573L180.521 305.776L181.197 309.751L179.422 310.006L178.958 305.941L175.696 307.711L174.909 306.024L178.319 304.458L175.572 301.643L176.854 300.347L179.49 303.378L181.111 299.819L182.712 300.667L180.84 304.203Z" fill="white"/>
</svg>
